<html>
<head>
<meta charset="UTF-8">
<meta name="viewport" content="width=device-width, initial-scale=1.0"/>

<style>
.comment
{
    padding-left: 20px;
    margin-top: 4px;
    margin-right: 4px;
    margin-bottom: 4px;
    border: 2px #000 solid;
}
.submission
{
    border: 4px #00f solid;
    padding-left: 20px;
}
.hidden
{
    display: none;
}
</style>
</head>
<body><div class="submission" id="t3_7da23n">
    <p class="userinfo">
        <a href="https://www.reddit.com/u/MrWifeSteal007">MrWifeSteal007</a>
        <span class="score"> | 13 points</span>
        <span class="timestamp"> | Nov 16 2017 04:41:46</span>
    </p>
    <strong>[TV][60FPS]Modern Family S09E07 720p 60FPS HDTV x265 - N0M3RcY (381 MB)</strong>
    <p><p><a href="https://mega.nz/#!YyxhgSbY!FrSD6-Tl5vtetero00oqr5FKhnDfBWWGepwwlSJWeF0">Link</a></p>
<p><strong>General</strong></p>
<p>Complete name                            : Modern Family S09E07 720p 60FPS HDTV x265 - N0M3RcY.mkv
Format                                   : Matroska
Format version                           : Version 4 / Version 2
File size                                : 381 MiB
Duration                                 : 21 min 23 s
Overall bit rate                         : 2 489 kb/s
Writing application                      : Lavf57.83.100
Writing library                          : Lavf57.83.100
ErrorDetectionType                       : Per level 1</p>
<p><strong>Video</strong></p>
<p>ID                                       : 1
Format                                   : HEVC
Format/Info                              : High Efficiency Video Coding
Format profile                           : Main@L5.2@High
Codec ID                                 : V_MPEGH/ISO/HEVC
Duration                                 : 21 min 22 s
Bit rate                                 : 2 055 kb/s
Width                                    : 1 280 pixels
Height                                   : 718 pixels
Display aspect ratio                     : 16:9
Frame rate mode                          : Constant
<strong>Frame rate                               : 59.940 (59940/1000) FPS</strong>
Standard                                 : Component
Color space                              : YUV
Chroma subsampling                       : 4:2:0
Bit depth                                : 8 bits
Bits/(Pixel*Frame)                       : 0.037
Stream size                              : 314 MiB (83%)
Default                                  : Yes
Forced                                   : No
Color range                              : Limited
Matrix coefficients                      : BT.709</p>
<p><strong>Audio</strong></p>
<p>ID                                       : 2
Format                                   : AC-3
Format/Info                              : Audio Coding 3
Codec ID                                 : A_AC3
Duration                                 : 21 min 23 s
Bit rate mode                            : Constant
Bit rate                                 : 384 kb/s
Channel(s)                               : 6 channels
Channel positions                        : Front: L C R, Side: L R, LFE
Sampling rate                            : 48.0 kHz
Frame rate                               : 31.250 FPS (1536 SPF)
Bit depth                                : 16 bits
Compression mode                         : Lossy
Stream size                              : 58.7 MiB (15%)
Service kind                             : Complete Main
Default                                  : Yes
Forced                                   : No</p></p>
    <p class="toolbar">
        <a href="https://www.reddit.com/r/megalinks/comments/7da23n">permalink</a>
    </p>
</div>
<div class="comment" id="t1_dpwf4pl">
    <p class="userinfo">
        <a
        class="toggle_hide_button"
        href="javascript:void(0)"
        onclick="toggle_collapse(this.parentElement.parentElement)">[-]
        </a>
        <a href="https://www.reddit.com/u/SubZorro">SubZorro</a>
        <span class="score"> | 1 points</span>
        <span class="timestamp"> | Nov 16 2017 08:33:11</span>
    </p>
    <div class="collapsible">
        <h5>Subtitles for this episode:</h5>
<hr>
<blockquote>
<ul>
<li>
<p><strong>Modern.Family.S09E07.HDTV.x264-KILLERS (CHI)</strong> - <code>1 CD</code> - <a href="http://dl.opensubtitles.org/en/download/vrf-6294dd6d/sub/7161203">Download Subtitle</a></p>
</li>
<li>
<p><strong>Modern.Family.S09E07.HDTV.x264-KILLERS</strong> - <code>1 CD</code> - <a href="http://dl.opensubtitles.org/en/download/vrf-50d73669/sub/7161189">Download Subtitle</a></p>
</li>
</ul>
</blockquote>
<hr>
<p>^This ^list ^of ^subtitles ^are ^taken ^from <a href="http://www.opensubtitles.org">^opensubtitles.org</a> ^| ^For ^feedback ^or ^suggestions ^contact <a href="http://www.reddit.com/message/compose/?to=indigo6alpha">^/u/indigo6alpha</a></p>
        <p class="toolbar">
            <a href="https://www.reddit.com/r/megalinks/comments/7da23n/_/dpwf4pl">permalink</a>
        </p>
        
    </div>
</div>

<div class="comment" id="t1_dr7zk0a">
    <p class="userinfo">
        <a
        class="toggle_hide_button"
        href="javascript:void(0)"
        onclick="toggle_collapse(this.parentElement.parentElement)">[-]
        </a>
        <a href="https://www.reddit.com/u/un10able">un10able</a>
        <span class="score"> | 1 points</span>
        <span class="timestamp"> | Dec 14 2017 02:51:01</span>
    </p>
    <div class="collapsible">
        <p>Thanks for the upload u/MrWifeSteal007. Where are you getting N0 M3RcY rips from or are they your own? 60fps is pretty gnarly</p>
        <p class="toolbar">
            <a href="https://www.reddit.com/r/megalinks/comments/7da23n/_/dr7zk0a">permalink</a>
        </p>
        <div class="comment" id="t1_dr880ob">
    <p class="userinfo">
        <a
        class="toggle_hide_button"
        href="javascript:void(0)"
        onclick="toggle_collapse(this.parentElement.parentElement)">[-]
        </a>
        <a href="https://www.reddit.com/u/MrWifeSteal007">MrWifeSteal007</a>
        <span class="score"> | 1 points</span>
        <span class="timestamp"> | Dec 14 2017 05:59:27</span>
    </p>
    <div class="collapsible">
        <p>They are my own 😀</p>
        <p class="toolbar">
            <a href="https://www.reddit.com/r/megalinks/comments/7da23n/_/dr880ob">permalink</a>
        </p>
        <div class="comment" id="t1_dr8c1dt">
    <p class="userinfo">
        <a
        class="toggle_hide_button"
        href="javascript:void(0)"
        onclick="toggle_collapse(this.parentElement.parentElement)">[-]
        </a>
        <a href="https://www.reddit.com/u/un10able">un10able</a>
        <span class="score"> | 1 points</span>
        <span class="timestamp"> | Dec 14 2017 08:09:23</span>
    </p>
    <div class="collapsible">
        <p>Nicely done man, keep on keepin on</p>
        <p class="toolbar">
            <a href="https://www.reddit.com/r/megalinks/comments/7da23n/_/dr8c1dt">permalink</a>
        </p>
        
    </div>
</div>
    </div>
</div>
    </div>
</div>
</body>

<script>
function toggle_collapse(comment_div)
{
    var button = comment_div.getElementsByClassName("toggle_hide_button")[0];
    var collapsible = comment_div.getElementsByClassName("collapsible")[0];
    if (collapsible.classList.contains("hidden"))
    {
        collapsible.classList.remove("hidden");
        button.innerText = "[-]";
    }
    else
    {
        collapsible.classList.add("hidden");
        button.innerText = "[+]";
    }
}
</script>
</html>
